<svg width="48" height="48" viewBox="0 0 48 48" fill="none" xmlns="http://www.w3.org/2000/svg">
<g clip-path="url(#clip0_101_150)">
<path d="M40 6H8C7.46957 6 6.96086 6.21071 6.58579 6.58579C6.21071 6.96086 6 7.46957 6 8V12.454L6.016 12.9C6.11562 14.2354 6.65913 15.4992 7.56 16.49L16 25.772V42C15.9999 42.3169 16.0752 42.6293 16.2195 42.9114C16.3638 43.1935 16.5731 43.4373 16.8302 43.6227C17.0872 43.808 17.3846 43.9297 17.6979 43.9775C18.0112 44.0254 18.3313 43.9981 18.632 43.898L30.632 39.898L30.848 39.812C31.1924 39.6507 31.4837 39.3946 31.6878 39.0737C31.8918 38.7528 32.0001 38.3803 32 38V24.828L40.242 16.588C40.7997 16.0305 41.242 15.3685 41.5436 14.64C41.8453 13.9114 42.0004 13.1305 42 12.342V8C42 7.46957 41.7893 6.96086 41.4142 6.58579C41.0391 6.21071 40.5304 6 40 6Z" fill="#F6B364"/>
</g>
<defs>
<clipPath id="clip0_101_150">
<rect width="48" height="48" fill="white"/>
</clipPath>
</defs>
</svg>
